<svg version="1.1" viewBox="0 0 512 512" xmlns="http://www.w3.org/2000/svg"><path d="m188 18c-35.456 0-64 28.544-64 64v3.9998h-41c-14.958 0-27 12.042-27 27 0 14.958 12.042 27 27 27h14.891c-.0012.65152.0016 1.3038.02791 1.9611l12.163 304.08c1.0716 26.793 23.104 47.962 49.918 47.962h192c26.815-4e-5 48.847-21.169 49.918-47.962l12.163-304.08c.0263-.65733.0286-1.3096.0274-1.9611h14.891c14.958 0 27-12.042 27-27 0-14.958-12.042-27-27-27h-41v-3.9998c0-35.456-28.544-64-64-64zm-17.059 160c8.8366-2e-5 16 7.1635 16 16l2.0001 232c5e-5 8.8366-7.1635 16-16 16-8.8366 3e-5-16-7.1635-16-16l-2.0002-232c-3e-5-8.8366 7.1635-16 16-16zm85.059 0c8.8366-2e-5 16 7.1635 16 16v232c3e-5 8.8366-7.1635 16-16 16-8.8366 3e-5-16-7.1635-16-16v-232c-3e-5-8.8366 7.1635-16 16-16zm85.059 0c8.8366-3e-5 16 7.1635 16 16l-2.9999 232c3e-5 8.8366-7.1635 16-16 16-8.8364-.00025-16-7.1637-16-16l2.9999-232c-3e-5-8.8364 7.1632-16 16-16z" fill="currentColor"/></svg>
